<svg width="100" height="100" xmlns="http://www.w3.org/2000/svg" xmlns:xlink="http://www.w3.org/1999/xlink" xml:space="preserve" overflow="hidden"><defs><clipPath id="clip0"><rect x="0" y="0" width="100" height="100"/></clipPath></defs><g clip-path="url(#clip0)"><path d="M88.9037 57.3919 85.7058 53.5502C86.3852 48.7233 83.7832 44.0307 79.3293 42.0502L75.4987 40.7664C74.5532 40.4573 73.5644 40.3008 72.5696 40.303L72.0304 40.3081C71.6007 40.3071 71.1716 40.3406 70.7472 40.4083 69.8552 40.5566 68.9843 40.811 68.1527 41.1661L59.1354 44.0679C59.096 44.0805 59.0575 44.0956 59.02 44.1131 58.8125 44.2082 58.6009 44.2937 58.3832 44.3705 55.5871 45.2566 52.5303 44.5124 50.4543 42.4403L42.389 35.1715C35.7035 29.2084 25.5768 29.3177 19.0217 35.4238 18.8693 35.5672 18.73 35.7198 18.586 35.8696 15.4536 31.7542 16.2506 25.8786 20.366 22.7462 21.9992 21.5032 23.9954 20.8311 26.0477 20.8333 26.623 20.8333 27.0894 20.367 27.0894 19.7917 27.0894 19.2164 26.623 18.75 26.0477 18.75 19.7216 18.7479 14.5915 23.8746 14.5894 30.2008 14.5884 32.8822 15.5282 35.479 17.2451 37.5386 14.764 41.268 14.5372 46.0603 16.6549 50.0074L18.0546 52.606C19.0553 54.4632 19.7426 56.4729 20.0886 58.554L20.1624 58.9954C20.268 59.6195 20.0825 60.2576 19.6589 60.7278L16.6925 64.0395C16.0079 64.8034 15.6296 65.7933 15.63 66.8192L15.63 71.9186C15.6302 72.0039 15.6407 72.0887 15.6612 72.1715L17.153 78.1371C17.6144 79.9932 19.282 81.2956 21.1947 81.2933L26.0424 81.2933C26.6173 81.2933 27.0834 80.8276 27.0841 80.2527L27.086 77.5457C27.087 75.7509 25.7457 74.2391 23.9636 74.026L23.9636 67.6667C28.0667 67.4646 31.9775 65.867 35.0484 63.1385L37.0411 65.77C39.8089 69.5685 44.0177 72.0608 48.6791 72.6613 50.1069 72.7236 51.3779 73.5847 51.9652 74.8876L52.9225 77.451C53.495 78.9721 54.7412 80.141 56.2957 80.6152L69.3771 84.5678C69.4747 84.5976 69.5761 84.6127 69.6781 84.6125L76.9657 84.6125C77.5406 84.6125 78.0069 84.1468 78.0074 83.5719L78.0095 80.865C78.0108 78.909 76.4264 77.3222 74.4703 77.3208 74.4695 77.3208 74.4686 77.3208 74.4678 77.3208L71.9024 77.3208 65.2224 75.4845 68.2204 65.98 72.8581 60.498 77.9901 62.7009C82.2098 64.5846 87.1581 62.6987 89.0537 58.4844 89.2165 58.1215 89.1582 57.6975 88.9037 57.3919ZM59.0753 46.3353C59.3323 46.245 59.5841 46.1442 59.8306 46.0327L59.9677 45.9884 69.8558 60.8207 68.3438 62.6089 57.7292 46.6875C58.1866 46.606 58.6367 46.4882 59.0753 46.3353ZM66.2968 65.1535 62.9104 75.8891C62.9084 75.8954 62.9104 75.9016 62.9083 75.9079 62.9062 75.9143 62.901 75.9194 62.8992 75.9262 62.8884 75.9899 62.884 76.0545 62.8858 76.119 62.8749 76.1851 62.8703 76.2522 62.8721 76.3192 62.8847 76.3859 62.904 76.4512 62.9297 76.5142 62.9447 76.5776 62.9656 76.6394 62.9922 76.6988 63.0285 76.7545 63.0701 76.8066 63.1161 76.8545 63.1543 76.9087 63.1976 76.9592 63.2455 77.005 63.3034 77.0452 63.3652 77.0794 63.43 77.107 63.4807 77.1415 63.5345 77.1711 63.5907 77.1957 63.5971 77.1978 63.6033 77.1957 63.6097 77.1978 63.616 77.1999 63.621 77.2051 63.6278 77.207L71.4861 79.3671C71.5761 79.3916 71.6691 79.4041 71.7623 79.4042L74.4682 79.4042C75.2736 79.4042 75.9266 80.0571 75.9266 80.8625L75.9255 82.5292 69.8323 82.5292 56.8979 78.6215C55.9655 78.3367 55.2182 77.6352 54.875 76.7227L53.9271 74.1857C53.0825 72.1188 51.1264 70.72 48.8973 70.5892 44.8086 70.0498 41.122 67.8523 38.7024 64.5126L36.5526 61.674C36.7966 61.4153 37.0384 61.1524 37.2776 60.8816 39.4854 58.4682 40.5673 55.2325 40.2551 51.9766 40.2007 51.4039 39.6924 50.9836 39.1197 51.0379 38.547 51.0923 38.1268 51.6006 38.181 52.1733 38.1824 52.1876 38.1841 52.2019 38.186 52.2161 38.4296 54.8847 37.5323 57.5316 35.7161 59.5018 32.6084 63.0194 29.3741 65.2777 22.8601 65.6673 22.8028 65.6771 22.7466 65.692 22.692 65.7118 22.623 65.7228 22.5554 65.7406 22.49 65.7652 22.4317 65.7967 22.3765 65.8339 22.3254 65.8761 22.2072 65.9391 22.1129 66.0392 22.0572 66.1609 22.018 66.2144 21.9842 66.2715 21.9562 66.3316 21.936 66.3974 21.9224 66.465 21.9155 66.5335 21.8986 66.5902 21.887 66.6482 21.8805 66.707L21.8805 75.0439C21.8805 75.6192 22.3469 76.0855 22.9222 76.0855L23.5447 76.0855C24.3501 76.0855 25.003 76.7384 25.003 77.5439L25.0021 79.2105 21.1949 79.2105C20.2385 79.2116 19.4047 78.5603 19.1741 77.6322L17.7133 71.7906 17.7133 66.8198C17.713 66.3068 17.9022 65.8118 18.2446 65.4297L21.2103 62.1185C22.0575 61.1778 22.4282 59.9015 22.2169 58.6532L22.1431 58.2118C21.7597 55.9047 20.9978 53.6769 19.8884 51.618L18.4886 49.0195C16.3369 45.0127 17.1407 40.0605 20.4495 36.9401 26.213 31.572 35.1164 31.476 40.9942 36.7188L49.0371 43.9672C50.7396 45.6 52.9503 46.6 55.3007 46.8005L66.9429 64.264 66.495 64.7939C66.4059 64.8996 66.3385 65.0218 66.2968 65.1535ZM78.8268 60.793 72.9712 58.2793C72.5503 58.0985 72.0608 58.2141 71.765 58.5637L71.256 59.1654 62.0293 45.3252C62.0293 45.3252 68.901 43.1019 69.2856 42.9705 69.2988 42.966 69.296 42.9754 69.2895 42.9879L67.933 45.7072C67.4355 46.6375 67.2424 47.7004 67.3809 48.7462 67.6336 50.3636 68.6252 51.7711 70.0633 52.5533 70.4308 52.7501 70.8215 52.9001 71.2261 52.9999 71.5998 53.0919 71.9831 53.1384 72.3679 53.1387 73.3091 53.1333 74.2293 52.8606 75.0215 52.3524 75.8358 51.8024 76.4991 51.0567 76.9502 50.1836 77.1989 49.6649 76.9799 49.0427 76.4611 48.7941 75.9503 48.5492 75.3373 48.7575 75.0815 49.263 74.7952 49.8039 74.3817 50.267 73.8766 50.6124 73.2384 51.0228 72.4602 51.1545 71.7225 50.977 71.4935 50.9208 71.2724 50.8369 71.0639 50.727 70.1944 50.2599 69.5938 49.4126 69.4411 48.4375 69.3703 47.8131 69.4957 47.1821 69.8002 46.6324L71.9127 42.3971C71.9607 42.396 71.9992 42.3925 72.0499 42.392L72.5811 42.387C73.3474 42.3798 74.1095 42.4999 74.8364 42.7424L78.5729 43.9885C82.2598 45.6602 84.3279 49.6341 83.5818 53.6128 83.514 53.93 83.5931 54.2608 83.7971 54.513L86.8646 58.1979C85.247 60.9958 81.7751 62.1167 78.8268 60.793Z" fill="#70AD47"/><path d="M80.2693 72.9167 77.6763 72.9167 68.6126 70.93C68.0505 70.807 67.4951 71.1628 67.3721 71.7249 67.249 72.2871 67.6049 72.8425 68.167 72.9655L77.3406 74.9759C77.4138 74.9918 77.4885 74.9999 77.5634 75L80.2693 75C81.0747 75 81.7276 75.6529 81.7276 76.4583L81.7266 78.125 79.5216 78.125C78.9462 78.125 78.4799 78.5914 78.4799 79.1667 78.4799 79.742 78.9462 80.2083 79.5216 80.2083L82.7672 80.2083C83.3421 80.2083 83.8082 79.7426 83.8088 79.1677L83.8108 76.4607C83.8122 74.5047 82.2276 72.918 80.2716 72.9167 80.2708 72.9167 80.27 72.9167 80.2693 72.9167Z" fill="#70AD47"/><path d="M33.3389 68.778 33.3389 67.5446C33.3389 66.9693 32.8725 66.5029 32.2972 66.5029 31.7219 66.5029 31.2555 66.9693 31.2555 67.5446L31.2555 69.7952C31.2555 70.3705 31.7219 70.8369 32.2972 70.8369L32.9197 70.8369C33.7251 70.8369 34.378 71.4898 34.378 72.2952L34.3771 73.9619 30.5699 73.9619C29.6135 73.963 28.7797 73.3118 28.5491 72.3836L27.6712 68.8732C27.5233 68.3173 26.9528 67.9865 26.3968 68.1344 25.8525 68.2792 25.5219 68.8304 25.6504 69.3787L26.5283 72.8892C26.9897 74.7453 28.6573 76.0477 30.57 76.0454L35.4177 76.0454C35.9926 76.0454 36.4587 75.5797 36.4594 75.0048L36.4614 72.2979C36.4624 70.5031 35.121 68.9911 33.339 68.7782Z" fill="#70AD47"/><path d="M81.254 52.6042C81.254 53.4671 80.5544 54.1667 79.6915 54.1667 78.8285 54.1667 78.129 53.4671 78.129 52.6042 78.129 51.7412 78.8285 51.0417 79.6915 51.0417 80.5544 51.0417 81.254 51.7412 81.254 52.6042Z" fill="#70AD47"/></g></svg>